HIERARCHY
ROOT Hips
{
	OFFSET 0.000000 88.474243 0.000000
	CHANNELS 6 Xposition Yposition Zposition Zrotation Yrotation Xrotation 
	JOINT Hips_Spine
	{
		OFFSET 0.000000 0.000000 0.000000
		CHANNELS 3 Zrotation Yrotation Xrotation
		JOINT Spine
		{
			OFFSET 0.005100 8.711998 -0.691000
			CHANNELS 3 Zrotation Yrotation Xrotation
			JOINT Spine1
			{
				OFFSET -0.009200 8.660301 -1.275000
				CHANNELS 3 Zrotation Yrotation Xrotation
				JOINT Spine2
				{
					OFFSET 0.006300 9.852501 -1.857000
					CHANNELS 3 Zrotation Yrotation Xrotation
					JOINT Spine2_Neck
					{
						OFFSET 0.000000 0.000000 0.000000
						CHANNELS 3 Zrotation Yrotation Xrotation
						JOINT Neck
						{
							OFFSET 0.016300 11.420799 -0.263300
							CHANNELS 3 Zrotation Yrotation Xrotation
							End Site #name: Head
							{
								OFFSET -0.019200 9.262405 2.362500
							}
						}
					}
					JOINT Spine2_LeftShoulder
					{
						OFFSET 0.000000 0.000000 0.000000
						CHANNELS 3 Zrotation Yrotation Xrotation
						JOINT LeftShoulder
						{
							OFFSET 5.616900 6.732201 -0.345700
							CHANNELS 3 Zrotation Yrotation Xrotation
							JOINT LeftArm
							{
								OFFSET 10.664888 -0.183372 -2.440700
								CHANNELS 3 Zrotation Yrotation Xrotation
								JOINT LeftForeArm
								{
									OFFSET 27.459126 0.000000 0.000000
									CHANNELS 3 Zrotation Yrotation Xrotation
									End Site #name: LeftHand
									{
										OFFSET 21.306858 0.000000 0.000000
									}
								}
							}
						}
					}
					JOINT Spine2_RightShoulder
					{
						OFFSET 0.000000 0.000000 0.000000
						CHANNELS 3 Zrotation Yrotation Xrotation
						JOINT RightShoulder
						{
							OFFSET -5.580300 6.737503 -0.344400
							CHANNELS 3 Zrotation Yrotation Xrotation
							JOINT RightArm
							{
								OFFSET -10.679335 -0.188484 -2.383900
								CHANNELS 3 Zrotation Yrotation Xrotation
								JOINT RightForeArm
								{
									OFFSET -27.503529 0.000000 0.000000
									CHANNELS 3 Zrotation Yrotation Xrotation
									End Site #name: RightHand
									{
										OFFSET -21.306808 0.000000 0.000000
									}
								}
							}
						}
					}
				}
			}
		}
	}
	JOINT Hips_LeftUpLeg
	{
		OFFSET 0.000000 0.000000 0.000000
		CHANNELS 3 Zrotation Yrotation Xrotation
		JOINT LeftUpLeg
		{
			OFFSET 6.857700 -6.739601 0.312100
			CHANNELS 3 Zrotation Yrotation Xrotation
			JOINT LeftLeg
			{
				OFFSET -0.367590 -34.731552 -4.572400
				CHANNELS 3 Zrotation Yrotation Xrotation
				End Site #name: LeftFoot
				{
					OFFSET 0.367590 -34.656704 -6.067400
				}
			}
		}
	}
	JOINT Hips_RightUpLeg
	{
		OFFSET 0.000000 0.000000 0.000000
		CHANNELS 3 Zrotation Yrotation Xrotation
		JOINT RightUpLeg
		{
			OFFSET -6.876100 -6.733299 0.301000
			CHANNELS 3 Zrotation Yrotation Xrotation
			JOINT RightLeg
			{
				OFFSET 0.347353 -34.795158 -4.515900
				CHANNELS 3 Zrotation Yrotation Xrotation
				End Site #name: RightFoot
				{
					OFFSET -0.347353 -34.589367 -6.070300
				}
			}
		}
	}
}
MOTION
Frames: 17
Frame Time: 0.041667
-0.088664 0.053164 0.021849 -3.995266 1.056209 -3.649321 -0.000000 0.000000 0.000000 -0.635732 0.819180 5.645939 -1.480584 1.236310 9.592900 0.000000 0.000000 0.000000 -1.722390 1.137457 8.897735 -0.927591 -3.674399 3.563699 -1.794599 1.184749 9.465349 -0.965376 -1.143910 0.199301 -69.363279 -24.645872 19.517200 169.175016 -86.555360 -169.567988 -1.495048 1.694644 10.380089 -5.143333 0.164743 1.303505 76.479302 -2.346904 6.511528 170.787348 85.188216 172.863694 0.000000 -0.000000 0.000000 7.133205 1.041960 -18.659594 -1.213441 0.662661 32.387215 0.000000 0.000000 -0.000000 -4.450461 -2.330009 -14.903918 -0.236716 -2.094669 26.890903 
-0.014282 0.087170 0.195602 -5.141519 -2.546749 -3.021696 -0.000000 0.000000 0.000000 -0.758391 0.346623 5.520362 -1.915508 1.355677 9.874657 0.000000 0.000000 0.000000 -1.689939 1.355691 9.735478 -1.749179 -4.022493 5.077593 -1.868262 1.417855 10.187757 0.352439 1.167841 -0.283138 -69.319932 -22.837421 31.047817 -179.772714 -82.536503 179.697009 -1.813492 1.190877 9.774732 -5.595232 -1.946314 0.748397 82.780117 -7.027107 5.829524 -172.792056 87.770226 -172.709317 0.000000 -0.000000 0.000000 7.394519 0.215991 -21.749789 -0.437110 1.137229 31.216631 0.000000 0.000000 -0.000000 -3.196933 -3.602161 -15.923948 0.912053 -0.693329 26.701795 
0.161797 0.111435 0.232824 -5.039465 -5.729745 -2.719185 -0.000000 0.000000 0.000000 -0.764336 0.394887 5.238159 -2.131925 1.394882 9.986368 0.000000 0.000000 0.000000 -2.022646 1.580763 10.358620 -1.645985 -3.589061 4.520695 -1.764485 1.537820 10.130154 0.681334 0.655987 -0.234228 -70.925572 -18.342696 33.493348 -178.266337 -81.201553 178.128750 -1.978994 1.388004 9.715096 -4.332928 -1.688352 0.750851 81.797521 -8.099456 8.589213 -167.539398 87.793420 -167.559090 0.000000 -0.000000 0.000000 7.806898 1.014349 -22.250559 -0.661469 0.684010 33.106621 0.000000 0.000000 -0.000000 -2.710729 -3.620737 -16.398721 0.715999 -0.956527 25.999684 
0.285886 0.102955 0.246787 -4.819704 -7.084906 -2.576064 -0.000000 -0.000000 0.000000 -0.646904 0.530795 4.900822 -1.987387 1.530354 9.827420 0.000000 0.000000 0.000000 -1.870595 1.674647 9.867294 -1.767215 -3.814238 5.075364 -1.818310 1.617730 10.064554 1.339605 0.443992 -0.040997 -71.335059 -17.431791 32.845296 -178.483121 -81.511624 178.310094 -2.029569 1.543423 9.607365 -4.445404 -0.843961 1.140120 79.849062 -7.465547 9.905182 -167.137979 86.120771 -167.422363 0.000000 -0.000000 0.000000 7.514288 1.175151 -22.629655 -0.955133 0.676037 33.664655 0.000000 0.000000 0.000000 -2.156792 -3.295388 -17.087227 0.552880 -0.576959 26.262919 
0.350387 0.111558 0.307337 -4.902802 -6.947173 -2.507697 -0.000000 -0.000000 0.000000 -0.574070 0.616540 4.820314 -1.833968 1.530851 9.536900 0.000000 0.000000 0.000000 -1.786090 1.614234 9.451946 -1.642236 -3.879899 5.190662 -1.839745 1.604759 9.821132 1.548217 0.390626 0.141846 -71.614514 -18.012962 31.843200 -177.695711 -83.010179 177.710041 -2.016755 1.559028 9.610052 -4.792427 -1.147684 1.397559 79.325564 -8.001120 8.957399 -162.596901 86.391123 -163.082748 0.000000 0.000000 0.000000 7.015789 1.228350 -22.315067 -1.152730 0.723111 33.258487 0.000000 0.000000 0.000000 -2.033398 -3.143032 -17.415293 0.540146 -0.402961 26.020463 
0.424356 0.116184 0.369455 -5.042983 -6.367722 -2.580127 -0.000000 -0.000000 0.000000 -0.553765 0.669401 4.812945 -1.696373 1.446513 9.223578 0.000000 0.000000 0.000000 -1.706049 1.490569 9.201217 -1.435156 -3.695094 5.132638 -1.810711 1.526357 9.526214 1.566261 0.541858 0.215818 -71.850208 -18.580472 30.566555 -175.538679 -83.999514 175.727662 -1.977397 1.518048 9.560607 -5.061075 -1.407281 1.472153 79.857678 -8.309109 7.491057 -162.064940 86.482428 -162.505613 0.000000 0.000000 0.000000 6.705516 1.233251 -22.020679 -1.241471 0.780808 33.025802 -0.000000 -0.000000 0.000000 -2.287675 -3.123505 -17.247627 0.389749 -0.543836 25.586754 
0.515023 0.135907 0.438719 -5.220678 -5.985583 -2.547278 -0.000000 -0.000000 0.000000 -0.566375 0.685128 4.715777 -1.694052 1.453989 9.209737 0.000000 0.000000 0.000000 -1.692387 1.401267 9.159016 -1.176800 -3.486674 5.100227 -1.779576 1.460360 9.339287 1.567473 0.781785 0.192655 -71.885985 -19.143828 29.178086 -175.952267 -83.645423 176.021917 -1.893631 1.466826 9.487478 -5.085027 -1.479786 1.351362 80.182988 -8.773419 6.892028 -163.853677 86.531469 -164.157705 0.000000 0.000000 0.000000 6.478267 1.159108 -21.709748 -1.213059 0.773721 32.841365 -0.000000 -0.000000 0.000000 -2.802266 -3.157043 -16.845115 0.325088 -0.714185 25.106293 
0.610761 0.175153 0.523654 -5.354529 -5.864755 -2.400266 -0.000000 -0.000000 0.000000 -0.573367 0.684502 4.709154 -1.694297 1.471633 9.242186 0.000000 0.000000 0.000000 -1.696611 1.368851 9.215910 -0.915254 -3.341058 5.011284 -1.738196 1.437454 9.293378 1.584699 0.856730 0.170362 -71.910054 -19.645298 28.419238 -176.815454 -83.223779 176.781260 -1.798136 1.443485 9.410854 -4.916794 -1.455819 1.239226 79.981910 -9.091473 6.725292 -166.655938 86.383608 -166.814050 0.000000 0.000000 0.000000 6.342858 1.193285 -21.574099 -1.117245 0.725013 32.862486 -0.000000 -0.000000 -0.000000 -3.255485 -3.156462 -16.531053 0.344042 -0.790264 24.838797 
0.713703 0.214009 0.593531 -5.409239 -5.829574 -2.191839 -0.000000 -0.000000 0.000000 -0.549523 0.674414 4.734374 -1.672197 1.491470 9.311594 0.000000 0.000000 0.000000 -1.680264 1.373150 9.268376 -0.582250 -3.038839 4.900790 -1.692651 1.440704 9.324260 1.693097 0.876896 0.176830 -72.147210 -19.395541 28.345060 -177.579101 -83.229239 177.470591 -1.696713 1.435294 9.376738 -4.581118 -1.408810 1.179338 79.520321 -8.949887 6.899617 -169.164998 86.221363 -169.214813 0.000000 0.000000 0.000000 6.261193 1.265259 -21.524272 -1.035106 0.671382 32.951829 -0.000000 -0.000000 -0.000000 -3.475786 -3.040409 -16.403321 0.382553 -0.816022 24.772130 
0.818962 0.244009 0.639040 -5.388149 -5.972773 -2.039481 -0.000000 -0.000000 0.000000 -0.512931 0.651626 4.753450 -1.633559 1.505740 9.339403 0.000000 0.000000 0.000000 -1.639565 1.390830 9.237343 -0.212033 -2.625002 4.686240 -1.640547 1.453225 9.345769 1.886767 0.917323 0.191325 -72.513066 -18.992355 28.564276 -178.242772 -83.671699 178.069267 -1.614638 1.435388 9.340480 -4.410252 -1.378644 1.170960 79.032499 -8.782424 7.174038 -170.349425 86.243831 -170.347826 0.000000 0.000000 0.000000 6.219546 1.282696 -21.448149 -0.983838 0.626934 32.964528 -0.000000 -0.000000 -0.000000 -3.528490 -2.892989 -16.419816 0.418134 -0.831029 24.734650 
0.922014 0.267683 0.669555 -5.288666 -6.243322 -1.951912 -0.000000 -0.000000 0.000000 -0.474483 0.612107 4.721225 -1.564192 1.498800 9.273637 0.000000 0.000000 0.000000 -1.578046 1.401295 9.141610 0.207767 -2.011677 4.201103 -1.580267 1.458850 9.339212 2.150175 0.987800 0.221596 -72.955715 -18.600755 29.059426 -178.952737 -84.195428 178.750394 -1.554322 1.437897 9.275848 -4.408811 -1.298039 1.199618 78.779954 -8.629383 7.402153 -171.127842 86.240380 -171.110706 0.000000 0.000000 0.000000 6.189931 1.296246 -21.403206 -0.966994 0.598665 32.929524 -0.000000 -0.000000 -0.000000 -3.508897 -2.764130 -16.454544 0.404386 -0.859268 24.669426 
1.019801 0.289801 0.699509 -5.179063 -6.581556 -1.877556 -0.000000 -0.000000 0.000000 -0.438806 0.566240 4.656406 -1.481736 1.474171 9.179790 0.000000 0.000000 0.000000 -1.506259 1.407727 9.070677 0.601113 -1.328649 3.719349 -1.525942 1.453265 9.311989 2.386302 1.093032 0.259324 -73.360828 -18.288600 29.639497 -179.403629 -84.440285 179.212892 -1.506427 1.437577 9.201954 -4.507398 -1.157013 1.227836 78.738570 -8.660775 7.431423 -171.866365 86.140049 -171.858492 0.000000 0.000000 0.000000 6.156757 1.311976 -21.346207 -0.964827 0.575807 32.867836 -0.000000 -0.000000 -0.000000 -3.436015 -2.652988 -16.453530 0.351136 -0.884864 24.529388 
1.111527 0.310472 0.733758 -5.063998 -6.903325 -1.808615 -0.000000 -0.000000 0.000000 -0.407622 0.540384 4.594978 -1.419473 1.448396 9.113273 0.000000 0.000000 0.000000 -1.443372 1.411688 9.041415 0.945536 -0.697995 3.387835 -1.475084 1.440995 9.281588 2.581829 1.194463 0.305720 -73.788574 -18.076414 30.140697 -179.571115 -84.523695 179.406026 -1.464690 1.431232 9.129432 -4.622673 -1.004773 1.264868 78.869490 -8.748260 7.346084 -172.593565 85.894464 -172.607436 0.000000 0.000000 0.000000 6.096683 1.332435 -21.328050 -0.981246 0.554403 32.855118 -0.000000 -0.000000 -0.000000 -3.341102 -2.541666 -16.414819 0.310194 -0.869480 24.292765 
1.202671 0.331713 0.769613 -5.012615 -7.112231 -1.723949 -0.000000 -0.000000 0.000000 -0.379440 0.528747 4.545614 -1.355536 1.427059 9.067309 0.000000 0.000000 0.000000 -1.389085 1.408907 9.036197 1.337537 -0.191815 3.054244 -1.424169 1.425829 9.248331 2.722044 1.282133 0.350247 -74.131642 -17.880504 30.550061 -179.621397 -84.572246 179.468804 -1.422733 1.422259 9.076411 -4.694507 -0.903531 1.293918 79.033237 -8.847424 7.237946 -173.215544 85.632140 -173.247524 0.000000 0.000000 0.000000 6.001656 1.343059 -21.357732 -1.001495 0.541331 32.846190 -0.000000 -0.000000 -0.000000 -3.280355 -2.435340 -16.332399 0.287980 -0.825554 23.932571 
1.300936 0.353340 0.804177 -5.014809 -7.248907 -1.623623 -0.000000 -0.000000 0.000000 -0.353615 0.527185 4.511874 -1.295117 1.412106 9.049322 0.000000 0.000000 0.000000 -1.337672 1.407118 9.040352 1.732084 0.203637 2.782599 -1.375866 1.401864 9.222451 2.849853 1.368828 0.385963 -74.426009 -17.693711 30.805879 -179.691278 -84.574798 179.537347 -1.379594 1.415651 9.043453 -4.750159 -0.908708 1.312706 79.129994 -8.960406 7.184415 -173.590810 85.457730 -173.642262 0.000000 0.000000 0.000000 5.873031 1.340983 -21.404443 -1.020514 0.547510 32.783193 -0.000000 -0.000000 -0.000000 -3.271655 -2.325127 -16.206458 0.258387 -0.773405 23.507183 
1.413769 0.375000 0.833266 -5.023824 -7.332455 -1.543618 -0.000000 -0.000000 0.000000 -0.328448 0.529174 4.499217 -1.240989 1.403099 9.039907 0.000000 0.000000 0.000000 -1.290363 1.407607 9.046064 2.097522 0.491958 2.624202 -1.326996 1.381100 9.192921 2.981008 1.442627 0.415083 -74.670766 -17.436710 30.976133 -179.805485 -84.500190 179.637393 -1.335852 1.412046 9.016756 -4.801644 -0.991079 1.324475 79.108869 -9.091374 7.125423 -173.813980 85.381047 -173.887112 0.000000 0.000000 0.000000 5.710515 1.325982 -21.475252 -1.038149 0.566042 32.705072 -0.000000 -0.000000 -0.000000 -3.324514 -2.230018 -16.074541 0.239397 -0.742300 23.079066 
1.544966 0.398396 0.857136 -5.046159 -7.379129 -1.488790 -0.000000 -0.000000 0.000000 -0.305273 0.531260 4.485489 -1.191394 1.398324 9.041368 0.000000 0.000000 0.000000 -1.241993 1.410814 9.053024 2.423157 0.710941 2.521622 -1.276218 1.368329 9.163514 3.110669 1.493576 0.428482 -74.822112 -17.098709 31.026281 -179.962320 -84.451795 179.765603 -1.291349 1.412767 8.992925 -4.787441 -1.064524 1.333194 78.997224 -9.183841 7.088496 -173.910792 85.380005 -174.014512 0.000000 0.000000 0.000000 5.517280 1.302722 -21.561835 -1.053560 0.590246 32.622809 -0.000000 -0.000000 -0.000000 -3.463201 -2.156149 -15.945764 0.265192 -0.731122 22.697126 
